<svg id="Layer_1" data-name="Layer 1" xmlns="http://www.w3.org/2000/svg" viewBox="0 0 1980 1080"><defs><style>.cls-1{fill:#fff;}</style></defs><title>Artboard 1</title><path d="M1732.25,192c-.71,2.32-.47,4.75-.68,7.12-.9,10.38-2.53,20.61-5.92,30.49-3,8.79-7.25,16.86-14,23.43-7.12,7-15.75,10.73-25.54,12a90,90,0,0,1-11.86.59h-51a5.14,5.14,0,0,1-2.32-.22V98.67c.53-.5,1.19-.3,1.8-.3,18.85,0,37.69-.07,56.54,0,10.87,0,21.05,2.51,29.77,9.43,7.61,6,12.44,14,15.87,22.95a108.35,108.35,0,0,1,6.27,28.12c.33,3.25.52,6.52.78,9.78,0,.33-.05.7.3.93Zm-76.87,48.31h1.82c5.23,0,10.45,0,15.68,0a17.19,17.19,0,0,0,12.26-5,31,31,0,0,0,7.43-12.44c2.91-8.29,4.07-16.92,4.64-25.65,1-15.16.87-30.28-1.84-45.29-1.2-6.63-3-13.08-6.89-18.75-3.69-5.41-8.68-8.31-15.38-8.15-5.28.13-10.57,0-15.85,0-.6,0-1.26-.19-1.87.26Z"/><path d="M1152.82,95.8a49.17,49.17,0,0,1,10.6,1.45c10.87,2.2,20.16,6.93,26.1,16.79,4,6.72,5.48,14.14,5.88,21.87.17,3.39-.05,6.73-.21,10.19h-33.1c-.17-2.36-.3-4.69-.53-7a29.2,29.2,0,0,0-2.59-9.94c-2.2-4.55-5.67-7.41-10.84-8a24.42,24.42,0,0,0-11.18,1.31c-6,2.2-8.53,6.87-9.28,12.92-.85,6.81,2.67,11.66,7,16.09,6.78,6.89,14.82,12.14,23.11,17,8,4.7,16.08,9.35,22.94,15.76,7.89,7.38,14.08,15.9,16,26.69,2.47,13.64,1.09,26.82-7.11,38.54-5.57,8-13.64,12.44-22.74,15.23a77.84,77.84,0,0,1-17.74,3.16c-.49,0-1.05-.13-1.44.35h-15.17c-3-.47-6-.84-9-1.44-10.42-2.09-19.43-6.57-25.69-15.54-4.42-6.32-6.45-13.5-7.36-21.05a94.7,94.7,0,0,1-.34-14.62,2.56,2.56,0,0,1,.39-1.71h34.15c.17,2.44.3,4.83.51,7.21a35.51,35.51,0,0,0,2.55,10.84c3.54,8.34,10.22,11.62,18.9,11,5.8-.42,10.74-2.45,13.22-8.08,3.21-7.29,2.88-14.2-2.71-20.5s-12.21-11.28-19-16.06c-7.14-5-14.89-9.11-21.75-14.54-8.25-6.51-15.46-13.88-19.87-23.62a42.93,42.93,0,0,1-3.44-21.34,54.59,54.59,0,0,1,4.17-18.35c4.85-10.89,13.42-17.49,24.52-21.13a68.49,68.49,0,0,1,16.35-3.13c.55,0,4.92-.36,7.72-.36Z"/><path d="M912.67,265.51a34.21,34.21,0,0,1-1-7.81c-.76-11.17-1.23-22.35-1.55-33.55a45.81,45.81,0,0,0-1.38-10.9c-2.69-9.77-9.38-15.52-19.57-16.36-4.39-.36-8.84-.06-13.45-.06v68.32a2.24,2.24,0,0,1-2,.5c-10.29,0-20.58,0-30.86,0-1.56,0-1.9-.47-1.9-2q.05-81.73,0-163.45c0-1.47.32-2,1.89-2,20.69.05,41.38,0,62.07.06,7.7,0,15.22,1.13,22.1,5,8.23,4.6,13,11.84,15.32,20.73a66,66,0,0,1,.35,33.56c-3.54,13.76-12.72,21.77-26.35,25l-2,.47s-.08.07-.3.26c1.74.38,3.35.69,4.94,1.09,8.06,2,15,5.7,19.56,13a32.22,32.22,0,0,1,4.63,16.9c.12,8.67.1,17.35.52,26,.34,7.16.66,14.34,2.29,21.37.28,1.22.68,2.4,1.06,3.76Zm-37-94.16h1.6c4.88,0,9.77,0,14.65,0,6.55,0,11.7-3.32,14.08-9.44a40.67,40.67,0,0,0,1.31-25.68c-1.9-7.13-7.31-11.06-14.73-11.16-5.29-.08-10.57,0-15.86,0a1.2,1.2,0,0,0-1,.27Z"/><path d="M339.87,98.48h34.29V166H413.9V98.79a2.4,2.4,0,0,1,1.85-.43c10.34,0,20.69,0,31,0,1.43,0,1.84.4,1.84,1.83q-.05,81.8,0,163.6c0,1.52-.41,1.94-1.93,1.93-10.29-.07-20.57,0-30.86,0a3.39,3.39,0,0,1-1.82-.27v-74H374.3v74.12H339.87Z"/><path d="M637.11,198.11a4.1,4.1,0,0,0-.22,2.19q0,31.63,0,63.27c0,1.62-.37,2.15-2.07,2.14q-16-.11-32.06,0c-1.42,0-1.85-.39-1.85-1.83q.05-81.88,0-163.76c0-1.34.36-1.77,1.74-1.76,20.8,0,41.6,0,62.4.06,7.27,0,14.42,1,21.11,4.16,10.28,4.8,16.27,13.13,19.41,23.75,2.95,10,3.31,20.22,2.52,30.54a53.74,53.74,0,0,1-5.15,20c-5.39,10.88-14.42,16.94-26,19.57a62.81,62.81,0,0,1-14,1.48q-11.89,0-23.79,0A4.35,4.35,0,0,0,637.11,198.11ZM637,172.66c6.82,0,13.44.26,20-.07,7.56-.38,12.19-4.31,14.22-11.6a42.51,42.51,0,0,0,0-22.3c-2.43-9.47-8-13.64-17.81-13.64-4.88,0-9.77,0-14.65,0-.61,0-1.27-.21-1.82.28Z"/><path d="M814.54,166.06v25.18H763V240.3h56.76v25.23H727.1V98.67c.52-.5,1.18-.3,1.78-.3q43.87,0,87.75,0c1.59,0,2,.44,2,2-.08,7.58,0,15.17,0,22.75,0,.56,0,1.13,0,1.9H763v41.05Z"/><path d="M541.44,265.32a3,3,0,0,1-2,.34H509.1c-2.27,0-2.27,0-2.28-2.2q0-27.24,0-54.48a8.7,8.7,0,0,0-.64-3.34Q485,153,463.81,100.32c-.21-.53-.4-1.06-.59-1.57.58-.62,1.25-.38,1.84-.38,11.15,0,22.3,0,33.45,0a2.05,2.05,0,0,1,2.34,1.61q11.81,33.13,23.72,66.22c.25.68.52,1.36.91,2.37l7.47-19.82q9.19-24.38,18.38-48.77c.37-1,.71-1.63,2-1.62,11,.06,22,0,32.93,0,.44,0,.88.08,1.52.13-1.71,4.05-3.35,7.94-5,11.83Q562.44,158,542.08,205.57a8.2,8.2,0,0,0-.66,3.33q0,27.24,0,54.48Z"/><path d="M1034.73,98.48h34.34V265.54h-34.34Z"/><path d="M1594.25,98.51V265.42a4.22,4.22,0,0,1-2.13.24c-14.08,0-28.16,0-42.24,0a2.4,2.4,0,0,1-2.71-1.87q-21.6-58.66-43.28-117.29a4.19,4.19,0,0,0-1-1.64V265.29a3,3,0,0,1-2,.37c-9.77,0-19.54,0-29.31,0-1.66,0-2-.55-2-2.06q.05-81.63,0-163.26c0-1.72.55-2.06,2.15-2.06q21.89.09,43.79,0a2.31,2.31,0,0,1,2.59,1.78q21,55.42,42,110.8a3.33,3.33,0,0,0,1,1.58v-114Z"/><path d="M1315.78,265.66c1.09-4,2.09-7.67,3.11-11.36q21.34-76.8,42.64-153.61c.51-1.84,1.21-2.39,3.1-2.38q21.12.13,42.24,0c1.44,0,1.94.46,2.3,1.81q22.06,82,44.2,163.9c.12.43.18.88.26,1.3-.62.53-1.28.33-1.88.33-11.09,0-22.18,0-33.28,0-1.51,0-2.06-.5-2.4-1.9-2.73-11.2-5.54-22.37-8.33-33.55-.14-.55-.32-1.08-.51-1.74h-1.74c-14.65,0-29.31,0-44,0-1.45,0-2.07.38-2.42,1.84-2.72,11.2-5.56,22.37-8.3,33.56-.33,1.33-.82,1.84-2.28,1.83-10.29-.07-20.57,0-30.86,0Zm51.86-62.59h33l-17-70.57-.33,0Z"/><path d="M1253.55,237.76h53v27.55c-.53.55-1.19.34-1.8.34q-42,0-83.94,0c-1.49,0-2-.35-1.95-1.91q.06-81.79,0-163.57c0-1.16,0-1.9,1.61-1.89,10.51.07,21,0,31.54,0a2.08,2.08,0,0,1,1.49.36Z"/><path class="cls-1" d="M1655.37,240.32v-115c.61-.46,1.26-.26,1.87-.26,5.28,0,10.57.09,15.85,0,6.7-.16,11.7,2.74,15.38,8.15,3.86,5.67,5.69,12.11,6.89,18.75,2.71,15,2.83,30.13,1.84,45.29-.57,8.72-1.73,17.35-4.64,25.65a31,31,0,0,1-7.43,12.44,17.19,17.19,0,0,1-12.26,5c-5.23,0-10.45,0-15.68,0Z"/><path class="cls-1" d="M875.69,171.35v-46a1.2,1.2,0,0,1,1-.27c5.29,0,10.57-.07,15.86,0,7.43.11,12.83,4,14.73,11.16A40.67,40.67,0,0,1,906,161.91c-2.38,6.12-7.53,9.42-14.08,9.44-4.88,0-9.77,0-14.65,0Z"/><path class="cls-1" d="M637,172.66V125.33c.56-.48,1.22-.27,1.82-.28,4.88,0,9.77,0,14.65,0,9.78,0,15.38,4.17,17.81,13.64a42.51,42.51,0,0,1,0,22.3c-2,7.29-6.66,11.22-14.22,11.6C650.4,172.92,643.79,172.66,637,172.66Z"/><path class="cls-1" d="M1367.64,203.07l15.66-70.54.33,0,17,70.57Z"/></svg>