<?xml version="1.0" encoding="utf-8"?>
<!-- Generator: Adobe Illustrator 21.1.0, SVG Export Plug-In . SVG Version: 6.00 Build 0)  -->
<svg version="1.1" id="Layer_1" xmlns="http://www.w3.org/2000/svg" xmlns:xlink="http://www.w3.org/1999/xlink" x="0px" y="0px"
	 viewBox="0 0 1441.9 222.6" enable-background="new 0 0 1441.9 222.6" xml:space="preserve">
<path fill="#523189" d="M1416.7,122.2c-0.7,2.3-0.5,4.7-0.7,7.1c-0.9,10.4-2.5,20.6-5.9,30.5c-3,8.8-7.3,16.9-14,23.4
	c-7.1,7-15.8,10.7-25.5,12c-3.9,0.5-7.9,0.6-11.9,0.6c-17,0-34,0-51,0c-0.7,0-1.5,0.1-2.3-0.2c0-55.6,0-111.2,0-166.8
	c0.5-0.5,1.2-0.3,1.8-0.3c18.8,0,37.7-0.1,56.5,0c10.9,0,21.1,2.5,29.8,9.4c7.6,6,12.4,14,15.9,22.9c3.5,9.1,5.3,18.5,6.3,28.1
	c0.3,3.3,0.5,6.5,0.8,9.8c0,0.3-0.1,0.7,0.3,0.9C1416.7,107.3,1416.7,114.8,1416.7,122.2z M1339.8,170.6c0.7,0,1.3,0,1.8,0
	c5.2,0,10.5,0,15.7,0c4.8,0,8.8-1.7,12.3-5c3.6-3.5,5.8-7.8,7.4-12.4c2.9-8.3,4.1-16.9,4.6-25.6c1-15.2,0.9-30.3-1.8-45.3
	c-1.2-6.6-3-13.1-6.9-18.7c-3.7-5.4-8.7-8.3-15.4-8.1c-5.3,0.1-10.6,0-15.9,0c-0.6,0-1.3-0.2-1.9,0.3
	C1339.8,93.8,1339.8,132,1339.8,170.6z"/>
<path fill="#523189" d="M837.2,26c3,0.5,7.6,0.8,10.6,1.4c10.9,2.2,20.2,6.9,26.1,16.8c4,6.7,5.5,14.1,5.9,21.9
	c0.2,3.4-0.1,6.7-0.2,10.2c-11.1,0-22,0-33.1,0c-0.2-2.4-0.3-4.7-0.5-7c-0.3-3.4-1.1-6.8-2.6-9.9c-2.2-4.5-5.7-7.4-10.8-8
	c-3.8-0.4-7.6,0-11.2,1.3c-6,2.2-8.5,6.9-9.3,12.9c-0.9,6.8,2.7,11.7,7,16.1c6.8,6.9,14.8,12.1,23.1,17c8,4.7,16.1,9.3,22.9,15.8
	c7.9,7.4,14.1,15.9,16,26.7c2.5,13.6,1.1,26.8-7.1,38.5c-5.6,8-13.6,12.4-22.7,15.2c-5.8,1.8-11.7,2.8-17.7,3.2
	c-0.5,0-1.1-0.1-1.4,0.3c-5.1,0-10.1,0-15.2,0c-3-0.5-6-0.8-9-1.4c-10.4-2.1-19.4-6.6-25.7-15.5c-4.4-6.3-6.4-13.5-7.4-21.1
	c-0.6-4.9-0.5-9.7-0.3-14.6c0-0.6,0-1.2,0.4-1.7c11.3,0,22.7,0,34.2,0c0.2,2.4,0.3,4.8,0.5,7.2c0.3,3.7,1.1,7.4,2.6,10.8
	c3.5,8.3,10.2,11.6,18.9,11c5.8-0.4,10.7-2.5,13.2-8.1c3.2-7.3,2.9-14.2-2.7-20.5c-5.6-6.3-12.2-11.3-19-16.1
	c-7.1-5-14.9-9.1-21.8-14.5c-8.2-6.5-15.5-13.9-19.9-23.6c-3.1-6.8-4-13.9-3.4-21.3c0.5-6.3,1.6-12.5,4.2-18.4
	c4.8-10.9,13.4-17.5,24.5-21.1c5.3-1.7,10.8-2.7,16.3-3.1c0.6,0,4.9-0.4,7.7-0.4C835.1,26,832.4,26,837.2,26z"/>
<path fill="#523189" d="M597.1,195.8c-0.8-2.5-0.9-5.2-1-7.8c-0.8-11.2-1.2-22.4-1.6-33.5c-0.1-3.7-0.4-7.3-1.4-10.9
	c-2.7-9.8-9.4-15.5-19.6-16.4c-4.4-0.4-8.8-0.1-13.4-0.1c0,22.8,0,45.6,0,68.3c-0.7,0.7-1.4,0.5-2,0.5c-10.3,0-20.6,0-30.9,0
	c-1.6,0-1.9-0.5-1.9-2c0-54.5,0-109,0-163.5c0-1.5,0.3-2,1.9-2c20.7,0.1,41.4,0,62.1,0.1c7.7,0,15.2,1.1,22.1,5
	c8.2,4.6,13,11.8,15.3,20.7c2.9,11.1,3.2,22.4,0.4,33.6c-3.5,13.8-12.7,21.8-26.3,25c-0.7,0.2-1.3,0.3-2,0.5c0,0-0.1,0.1-0.3,0.3
	c1.7,0.4,3.3,0.7,4.9,1.1c8.1,2,15,5.7,19.6,13c3.2,5.2,4.5,10.9,4.6,16.9c0.1,8.7,0.1,17.3,0.5,26c0.3,7.2,0.7,14.3,2.3,21.4
	c0.3,1.2,0.7,2.4,1.1,3.8C620,195.8,608.6,195.8,597.1,195.8z M560.1,101.6c0.6,0,1.1,0,1.6,0c4.9,0,9.8,0,14.7,0
	c6.5,0,11.7-3.3,14.1-9.4c3.3-8.4,3.6-17,1.3-25.7c-1.9-7.1-7.3-11.1-14.7-11.2c-5.3-0.1-10.6,0-15.9,0c-0.3,0-0.7-0.1-1,0.3
	C560.1,70.8,560.1,86.1,560.1,101.6z"/>
<path fill="#523189" d="M24.3,28.7c11.4,0,22.8,0,34.3,0c0,22.5,0,44.9,0,67.5c13.3,0,26.4,0,39.7,0c0-22.5,0-44.9,0-67.2
	c0.7-0.6,1.3-0.4,1.9-0.4c10.3,0,20.7,0,31,0c1.4,0,1.8,0.4,1.8,1.8c0,54.5,0,109.1,0,163.6c0,1.5-0.4,1.9-1.9,1.9
	c-10.3-0.1-20.6,0-30.9,0c-0.6,0-1.1,0.1-1.8-0.3c0-24.6,0-49.2,0-74c-13.3,0-26.4,0-39.7,0c0,24.6,0,49.3,0,74.1
	c-11.6,0-23,0-34.4,0C24.3,140,24.3,84.4,24.3,28.7z"/>
<path fill="#523189" d="M321.5,128.3c-0.4,0.7-0.2,1.5-0.2,2.2c0,21.1,0,42.2,0,63.3c0,1.6-0.4,2.2-2.1,2.1
	c-10.7-0.1-21.4-0.1-32.1,0c-1.4,0-1.8-0.4-1.8-1.8c0-54.6,0-109.2,0-163.8c0-1.3,0.4-1.8,1.7-1.8c20.8,0,41.6,0,62.4,0.1
	c7.3,0,14.4,1,21.1,4.2c10.3,4.8,16.3,13.1,19.4,23.8c2.9,10,3.3,20.2,2.5,30.5c-0.5,7-2,13.7-5.1,20c-5.4,10.9-14.4,16.9-26,19.6
	c-4.6,1-9.3,1.5-14,1.5c-7.9,0-15.9,0-23.8,0C322.9,128.2,322.2,128,321.5,128.3z M321.4,102.9c6.8,0,13.4,0.3,20-0.1
	c7.6-0.4,12.2-4.3,14.2-11.6c2.1-7.4,1.9-14.9,0-22.3c-2.4-9.5-8-13.6-17.8-13.6c-4.9,0-9.8,0-14.7,0c-0.6,0-1.3-0.2-1.8,0.3
	C321.4,71.3,321.4,87,321.4,102.9z"/>
<path fill="#523189" d="M499,96.3c0,8.6,0,16.8,0,25.2c-17.2,0-34.3,0-51.6,0c0,16.4,0,32.7,0,49.1c18.9,0,37.8,0,56.8,0
	c0,8.5,0,16.8,0,25.2c-30.9,0-61.7,0-92.6,0c0-55.6,0-111.2,0-166.9c0.5-0.5,1.2-0.3,1.8-0.3c29.2,0,58.5,0,87.7,0c1.6,0,2,0.4,2,2
	c-0.1,7.6,0,15.2,0,22.8c0,0.6,0,1.1,0,1.9c-18.6,0-37.1,0-55.7,0c0,13.8,0,27.3,0,41.1C464.5,96.3,481.7,96.3,499,96.3z"/>
<path fill="#523189" d="M225.9,195.6c-0.7,0.5-1.4,0.3-2,0.3c-10.1,0-20.2,0-30.3,0c-2.3,0-2.3,0-2.3-2.2c0-18.2,0-36.3,0-54.5
	c0-1.2-0.2-2.2-0.6-3.3c-14.1-35.1-28.3-70.2-42.4-105.3c-0.2-0.5-0.4-1.1-0.6-1.6c0.6-0.6,1.2-0.4,1.8-0.4c11.1,0,22.3,0,33.4,0
	c1.3,0,1.9,0.3,2.3,1.6c7.9,22.1,15.8,44.2,23.7,66.2c0.2,0.7,0.5,1.4,0.9,2.4c2.6-6.8,5-13.3,7.5-19.8
	c6.1-16.3,12.3-32.5,18.4-48.8c0.4-1,0.7-1.6,2-1.6c11,0.1,22,0,32.9,0c0.4,0,0.9,0.1,1.5,0.1c-1.7,4.1-3.3,7.9-5,11.8
	c-13.6,31.8-27.1,63.5-40.7,95.2c-0.5,1.1-0.7,2.2-0.7,3.3c0,18.2,0,36.3,0,54.5C225.9,194.3,225.9,195,225.9,195.6z"/>
<path fill="#523189" d="M719.2,28.7c11.5,0,22.9,0,34.3,0c0,55.7,0,111.3,0,167.1c-11.5,0-22.9,0-34.3,0
	C719.2,140,719.2,84.4,719.2,28.7z"/>
<path fill="#523189" d="M1278.7,28.7c0,55.7,0,111.3,0,166.9c-0.8,0.4-1.5,0.2-2.1,0.2c-14.1,0-28.2,0-42.2,0
	c-1.5,0-2.2-0.5-2.7-1.9c-14.4-39.1-28.8-78.2-43.3-117.3c-0.2-0.6-0.5-1.1-1-1.6c0,40.2,0,80.3,0,120.4c-0.8,0.5-1.4,0.4-2,0.4
	c-9.8,0-19.5,0-29.3,0c-1.7,0-2-0.6-2-2.1c0-54.4,0-108.8,0-163.3c0-1.7,0.5-2.1,2.2-2.1c14.6,0.1,29.2,0.1,43.8,0
	c1.4,0,2.1,0.4,2.6,1.8c14,36.9,28,73.9,42,110.8c0.2,0.6,0.4,1.1,1,1.6c0-37.9,0-75.9,0-114C1256.7,28.7,1267.6,28.7,1278.7,28.7z"
	/>
<path fill="#523189" d="M1000.2,195.9c1.1-4,2.1-7.7,3.1-11.4c14.2-51.2,28.5-102.4,42.6-153.6c0.5-1.8,1.2-2.4,3.1-2.4
	c14.1,0.1,28.2,0.1,42.2,0c1.4,0,1.9,0.5,2.3,1.8c14.7,54.6,29.5,109.3,44.2,163.9c0.1,0.4,0.2,0.9,0.3,1.3
	c-0.6,0.5-1.3,0.3-1.9,0.3c-11.1,0-22.2,0-33.3,0c-1.5,0-2.1-0.5-2.4-1.9c-2.7-11.2-5.5-22.4-8.3-33.6c-0.1-0.5-0.3-1.1-0.5-1.7
	c-0.6,0-1.2,0-1.7,0c-14.7,0-29.3,0-44,0c-1.4,0-2.1,0.4-2.4,1.8c-2.7,11.2-5.6,22.4-8.3,33.6c-0.3,1.3-0.8,1.8-2.3,1.8
	c-10.3-0.1-20.6,0-30.9,0C1001.6,195.9,1001.1,195.9,1000.2,195.9z M1052.1,133.3c11.1,0,21.9,0,33,0c-5.7-23.6-11.3-47.1-17-70.6
	c-0.1,0-0.2,0-0.3,0C1062.5,86.2,1057.3,109.7,1052.1,133.3z"/>
<path fill="#523189" d="M938,168c17.8,0,35.4,0,53,0c0,9.3,0,18.4,0,27.5c-0.5,0.5-1.2,0.3-1.8,0.3c-28,0-56,0-83.9,0
	c-1.5,0-2-0.4-1.9-1.9c0-54.5,0-109,0-163.6c0-1.2,0-1.9,1.6-1.9c10.5,0.1,21,0,31.5,0c0.5,0,0.9-0.1,1.5,0.4
	C938,75.1,938,121.4,938,168z"/>
<g>
</g>
<g>
</g>
<g>
</g>
<g>
</g>
<g>
</g>
<g>
</g>
</svg>
