<svg id="Layer_1" data-name="Layer 1" xmlns="http://www.w3.org/2000/svg" viewBox="0 0 766.33 38.66"><title>HISP</title><path d="M307,110.22v25h-7.18V98.71c3.18,0,6.4-.08,9.61.08.51,0,1.16,1,1.43,1.71,2.65,6.83,5.22,13.69,7.83,20.53a3,3,0,0,0,.94,1.41V98.82h7.17v36.53c-3.07,0-6.15.08-9.22-.08-.52,0-1.19-1-1.44-1.68-2.75-7.28-5.43-14.58-8.13-21.87-.2-.53-.45-1-.68-1.56Z" transform="translate(-5.36 -97.62)" fill="#fff"/><path d="M179.67,117.45c4.71,1.25,5.5,4.7,5.44,8.78,0,2.93.23,5.87.38,9.13-2,0-4.09.1-6.16-.08-.48,0-1.2-1-1.27-1.61-.26-2.4-.29-4.83-.42-7.25-.28-5-2-6.45-7.36-5.94v14.73h-7.53V98.95c5.45,0,10.8-.21,16.12.08,3.28.17,5.2,2.44,6,5.62C186.39,110.28,184.9,114.12,179.67,117.45Zm-9.29-12.73v9.93c2.27-.32,4.84.91,6.21-1.73a6.58,6.58,0,0,0,0-6.71C175.15,103.86,172.68,104.7,170.39,104.72Z" transform="translate(-5.36 -97.62)" fill="#fff"/><path d="M53.49,98.83h7.38v14.53h8.55V98.88h7.52V135.2H69.57v-16H61v16H53.49Z" transform="translate(-5.36 -97.62)" fill="#fff"/><path d="M332.82,135.29V99.1c5.3,0,10.51-.29,15.66.1,3.32.25,5.56,2.8,6.66,5.87a33.79,33.79,0,0,1-.16,24,9.2,9.2,0,0,1-8.51,6.21C342,135.47,337.56,135.29,332.82,135.29Zm7.63-5.88c5.64.82,7.7-.35,8.35-5.83a57,57,0,0,0,0-13.25c-.61-5.2-3-6.48-8.33-5.42Z" transform="translate(-5.36 -97.62)" fill="#fff"/><path d="M296.41,135.36c-2.63,0-4.89.08-7.13-.06-.5,0-1.19-.77-1.38-1.32a38.66,38.66,0,0,1-1.31-5c-.24-1.24-.74-1.79-2.1-1.74-2.86.1-5.72,0-8.62,0l-2.09,8h-7.61c1.32-4.76,2.6-9.32,3.86-13.89,1.91-6.92,3.85-13.83,5.71-20.76.37-1.36.92-2,2.46-1.92,2.71.14,5.44,0,8.32,0Zm-15.2-28.05-.48.11-3,14h6.9Z" transform="translate(-5.36 -97.62)" fill="#fff"/><path d="M217.24,124h7.2c.24,1.16.41,2.26.7,3.33a3.51,3.51,0,0,0,3.39,2.84c1.5.09,2.93-.13,3.63-1.71a3.63,3.63,0,0,0-.79-4.56c-1.88-1.62-3.92-3.07-5.88-4.59a53.52,53.52,0,0,1-4.8-3.77c-3.18-3.1-3.85-6.9-2.5-11.07,1.29-4,4.41-5.66,8.23-6.11a22.17,22.17,0,0,1,6.53.15c4.78.88,7.2,4.16,7.16,9,0,1.22-.32,1.82-1.66,1.77-1.87-.08-3.75,0-5.7,0-.15-1-.21-1.87-.39-2.66-.36-1.5-1.17-2.89-2.82-2.77a6.1,6.1,0,0,0-3.72,1.54,2.82,2.82,0,0,0,.34,4.11c2.09,1.83,4.45,3.34,6.61,5.09s4.52,3.21,6,5.35a9.75,9.75,0,0,1-6.27,15.42,27.71,27.71,0,0,1-5.63.44C219.88,135.75,216.16,131.25,217.24,124Z" transform="translate(-5.36 -97.62)" fill="#fff"/><path d="M118.24,120.45V135.2h-7.78V99.11c5.64,0,11.28,0,16.91,0a3.6,3.6,0,0,1,1.29.42c4,1.7,6,6.81,5.06,12.75-.8,5-3.61,7.83-8.28,8.13C123.19,120.57,120.92,120.45,118.24,120.45Zm.14-5.48c2.45-.21,5,.88,6.77-1.59,1.09-1.52.94-5.69-.19-7.19-1.74-2.3-4.19-1.42-6.58-1.54Z" transform="translate(-5.36 -97.62)" fill="#fff"/><path d="M157.79,98.83v5.7H145.85v8.94h11V119h-11v10.55h12.07v5.66H138V98.83Z" transform="translate(-5.36 -97.62)" fill="#fff"/><path d="M537.9,128.52V98.87H542V135.1a40.28,40.28,0,0,1-5.37-.08c-.65-.09-1.4-1-1.73-1.71-4-8.71-8-17.45-12-26.18A7,7,0,0,0,521.5,105v29.94h-4.26V98.7a41.11,41.11,0,0,0,4.2,0c1.68-.18,2.53.43,3.23,2,3.83,8.63,7.8,17.21,11.73,25.8.33.73.7,1.44,1.05,2.16Z" transform="translate(-5.36 -97.62)" fill="#fff"/><path d="M97.44,135.24H89.79c0-2.91.18-5.83-.06-8.73a28.12,28.12,0,0,0-1.44-7.44c-2.5-6.71-5.3-13.32-8.14-20.36,2.72,0,5.16-.07,7.6.07.41,0,.94.86,1.15,1.42,1.4,3.75,2.73,7.53,4.09,11.3.22.6.48,1.19.92,2.25,1.78-4.67,3.46-8.85,4.93-13.09a2.48,2.48,0,0,1,2.95-2c1.79.14,3.6,0,5.7,0-.41,1.07-.71,1.9-1.05,2.71-2.52,5.91-5.16,11.77-7.51,17.75a24.75,24.75,0,0,0-1.43,7C97.26,129.05,97.44,132,97.44,135.24Z" transform="translate(-5.36 -97.62)" fill="#fff"/><path d="M461.24,99c4.74,0,9.35-.29,13.91.09,4.23.35,6.77,3.21,7.64,7.3a54.82,54.82,0,0,1,.21,19.86c-.78,5-3.86,8-8.73,8.44-4.25.43-8.58.09-13,.09ZM466,130.84c2.41,0,4.68.18,6.9,0,2.72-.27,5.08-1.84,5.23-4.55.34-6.29.26-12.61,0-18.91a4.37,4.37,0,0,0-3.79-4c-2.72-.4-5.5-.37-8.36-.53Z" transform="translate(-5.36 -97.62)" fill="#fff"/><path d="M614.68,135V99c5,0,9.88-.31,14.72.1,3.73.31,5.85,3.16,6.42,7.17s-1,7.43-4.09,9.12c-.46.25-.95.45-1.72.82,4.11,1,4.83,4,5.08,7.44.26,3.69.69,7.36,1.08,11.43a24.36,24.36,0,0,1-4-.08c-.49-.08-1.12-1-1.19-1.6-.38-3.22-.63-6.46-.86-9.7-.26-3.7-1.67-5.09-5.43-5.17-1.72,0-3.44,0-5.39,0V135Zm4.61-20.81a79.9,79.9,0,0,0,8.08-.06c2.29-.24,3.65-2.73,3.62-5.79,0-2.88-1.3-4.87-3.7-5.19a43.76,43.76,0,0,0-6.77-.18,1.69,1.69,0,0,0-1.17,1.16C619.24,107.39,619.29,110.7,619.29,114.15Z" transform="translate(-5.36 -97.62)" fill="#fff"/><path d="M665.61,116.43c-.2,3.47-.17,7-.64,10.4-.85,6.24-4.5,9.06-11.2,9-6.42,0-10.36-3-10.86-9.15a129.36,129.36,0,0,1-.16-19.25c.45-6.46,4.95-9.7,11.81-9.46,6.49.23,10.46,4,10.81,10.46.14,2.64,0,5.3,0,7.94Zm-4.88.32h-.24c0-2.79.12-5.59,0-8.38-.2-3.85-2.46-6.11-6.07-6.33s-6.56,1.64-6.75,5.45a175.86,175.86,0,0,0,.24,19.65c.22,3.37,2.51,4.76,6.06,4.75s5.53-1.3,6.05-4.76S660.51,120.2,660.73,116.75Z" transform="translate(-5.36 -97.62)" fill="#fff"/><path d="M34.53,135a28.89,28.89,0,0,1-4.2-.07A2.32,2.32,0,0,1,29,133.58,53.35,53.35,0,0,1,27.21,128a1.74,1.74,0,0,0-2-1.59c-3.63.07-7.26,0-10.89.09a2.63,2.63,0,0,0-1.84,1.36A17.88,17.88,0,0,0,11,132.33c-.4,2.38-1.69,3.12-3.91,2.72-.51-.09-1-.08-1.76-.14,2-6.36,4-12.61,5.94-18.85,1.64-5.18,3.34-10.34,4.91-15.54a2.17,2.17,0,0,1,2.49-1.89c4.09.06,4.09,0,5.35,3.83q4.92,15.06,9.83,30.13C34.11,133.29,34.26,134,34.53,135ZM19.65,103.1,14.06,122.2H25.41Z" transform="translate(-5.36 -97.62)" fill="#fff"/><path d="M430.15,98.82h4.76c0,1,0,1.85,0,2.73.05,7.87,0,15.74.21,23.6.15,4.91,2.5,6.9,7.18,6.71,3-.12,4.81-1.54,5.45-4.49a26.59,26.59,0,0,0,.54-5.4c.06-7.64,0-15.27,0-23.09h4.55a4.11,4.11,0,0,1,.2.9c-.06,8.55.15,17.11-.3,25.64-.48,9.05-9.4,13.57-17.41,9.14-4-2.23-5-6.2-5.11-10.27-.23-7.56-.1-15.13-.11-22.7C430.15,100.77,430.15,99.94,430.15,98.82Z" transform="translate(-5.36 -97.62)" fill="#fff"/><path d="M376.25,124.28h4.48c.1,1,.15,1.89.29,2.77.5,3.23,3.27,5.11,6.9,4.69s5.92-2.76,5.26-6a8.64,8.64,0,0,0-3-4.71c-2.44-1.87-5.36-3.09-8-4.72-3.39-2.08-5.4-5-5.15-9.18.24-4,2.42-7.37,6.24-8.3a20.39,20.39,0,0,1,8.24-.29c4.55.83,6.62,4.48,6.24,10H393c-.06-.62-.09-1.21-.18-1.79-.42-2.68-1.77-4.15-4.08-4.49-3-.45-5.4.57-6.4,2.73a5.29,5.29,0,0,0,1.58,6.54,42.25,42.25,0,0,0,4.59,2.91c1.87,1.14,3.88,2.09,5.62,3.4,3.77,2.83,5,7.21,3.46,11.77-1.24,3.74-4.55,6-9.13,6.23a23.22,23.22,0,0,1-4.31-.09C378.52,134.95,375.69,130.88,376.25,124.28Z" transform="translate(-5.36 -97.62)" fill="#fff"/><path d="M245.29,98.79h7.43V129h11.34v6.2H245.29Z" transform="translate(-5.36 -97.62)" fill="#fff"/><path d="M744.44,108.78h-4.72c-.06-.49-.12-.85-.15-1.21-.24-3.87-1.4-5.23-4.66-5.44-3.59-.23-6.18,1.38-6.37,4.9a165.14,165.14,0,0,0-.06,19.25c.27,4.32,2.38,5.75,6.2,5.58,3.13-.14,5-2.25,5.35-6.18,0-.3.06-.6.12-1.13h4.58c1.1,6.33-2.81,11.19-9.09,11.3-8,.15-11.3-2.22-12-10.21a94.85,94.85,0,0,1,.15-19c.87-7.92,11.58-11.79,17.88-6.79C744.42,102.08,744.67,105.25,744.44,108.78Z" transform="translate(-5.36 -97.62)" fill="#fff"/><path d="M592.12,119.08v15.84h-4.67V98.41c5,.33,10,.59,15,1.05a5.14,5.14,0,0,1,2.74,1.48c3.57,3.39,3.62,7.66,2.47,12-1,3.62-4.29,5.92-8.4,6.12C597,119.17,594.77,119.08,592.12,119.08Zm.08-3.91a54.28,54.28,0,0,0,7.52-.66c2.79-.63,3.91-3,3.63-6.45-.25-3-1.71-4.78-4.52-5.06-2.15-.21-4.33,0-6.63,0Z" transform="translate(-5.36 -97.62)" fill="#fff"/><path d="M496.54,102.79v11.57H509.4v4.16H496.59v12.38h14.13v4h-18.8V98.84H510.4v4Z" transform="translate(-5.36 -97.62)" fill="#fff"/><path d="M698.67,98.8h18.42v3.94H703.32v11.62h12.83v4.15H703.27v12.42h14.2v4H698.67Z" transform="translate(-5.36 -97.62)" fill="#fff"/><path d="M212.39,98.86v36.35H205V98.86Z" transform="translate(-5.36 -97.62)" fill="#fff"/><path d="M561.34,135h-4.75V102.89h-9.45V98.83h23.58v4h-9.37Z" transform="translate(-5.36 -97.62)" fill="#fff"/><path d="M771.69,98.83v4h-9.12V135h-4.75V103h-9.47V98.83Z" transform="translate(-5.36 -97.62)" fill="#fff"/><path d="M685.28,98.8h4.54c.05.72.14,1.38.14,2q0,12.71,0,25.42c0,3.74-1.08,7-4.71,8.59-3.88,1.7-7.9,1.74-11.44-.86s-3-6.31-3-10c.7-.08,1.2-.19,1.71-.2,3.12-.06,3.12-.06,3.31,3.08.2,3.49,1.47,5,4.21,5,3,0,4.87-1.56,5-5,.21-8.32.2-16.64.27-25C685.29,101,685.28,100,685.28,98.8Z" transform="translate(-5.36 -97.62)" fill="#fff"/><path d="M411.42,102.83h-9.49v-4h23.48v4H416V135h-4.62Z" transform="translate(-5.36 -97.62)" fill="#fff"/></svg>